# xmcd
#
# Track frame offsets:
#	150
#	13701
#	34458
#	47884
#	60587
#	75787
#	86325
#	104455
#	118053
#	131781
#	145155
#	164138
#
# Disc length: 2358
#
# Revision: 2
# Processed by: cddbd v1.5.1PL0 Copyright (c) Steve Scherf et al.
# Submitted via: Audio-CD-Archiv 2.10.438
# Normalized: r1:DSETVAR1,TDELIM( - )
#
DISCID=a209340c
DTITLE=Various Artist - Country Star Festival CD1
DYEAR=1900
DGENRE=country
TTITLE0=Jimmy Dean - Big Bad John
TTITLE1=Emmy Lou Anderson - Can You Spare A Dime
TTITLE2=Mel McBrown - Everything From Jesus To Jack Daniels
TTITLE3=Bobby Helms - Fräulein
TTITLE4=Jeannie C. Riley - Harper Valley P.T.A.
TTITLE5=Johnny Russel - Jambalaya
TTITLE6=David Houston - Nashville
TTITLE7=Jack Fender - Oregon Trail
TTITLE8=Earl Ricks - Red River Valley
TTITLE9=Lynn Anderson - Rose Garden
TTITLE10=Dolly Merle - Rose Of Cimarron
TTITLE11=Danny Gibson - Valley Forge
EXTD=
EXTT0=
EXTT1=
EXTT2=
EXTT3=
EXTT4=
EXTT5=
EXTT6=
EXTT7=
EXTT8=
EXTT9=
EXTT10=
EXTT11=
PLAYORDER=
